<svg viewBox="0 0 280 280" fill="none" xmlns="http://www.w3.org/2000/svg" width="250" height="250"><mask id="avatarsRadiusMask"><rect width="280" height="280" rx="140" ry="140" fill="#fff" x="0" y="0"/></mask><g mask="url(#avatarsRadiusMask)"><path fill="#fff" d="M0 0h280v280H0z"/><path d="M260 160c0 66.274-53.726 120-120 120S20 226.274 20 160 73.726 40 140 40s120 53.726 120 120z" fill="#94d381"/><mask id="a" maskUnits="userSpaceOnUse" x="8" y="0" width="264" height="280"><path fill-rule="evenodd" clip-rule="evenodd" d="M272 0H8v160h12c0 66.274 53.726 120 120 120s120-53.726 120-120h12V0z" fill="#fff"/></mask><g mask="url(#a)"><g transform="translate(40, 36)"><path d="M100 0C69.072 0 44 25.072 44 56v6.166c-5.675.952-10 5.888-10 11.834v14c0 6.052 4.48 11.058 10.305 11.881 2.067 19.806 14.458 36.541 31.695 44.73V163h-4c-39.764 0-72 32.236-72 72v9h200v-9c0-39.764-32.236-72-72-72h-4v-18.389c17.237-8.189 29.628-24.924 31.695-44.73C161.52 99.058 166 94.052 166 88V74c0-5.946-4.325-10.882-10-11.834V56c0-30.928-25.072-56-56-56z" fill="#EDB98A"/><path d="M76 144.611v8A55.79 55.79 0 00100 158a55.789 55.789 0 0024-5.389v-8A55.789 55.789 0 01100 150a55.79 55.79 0 01-24-5.389z" fill="#000" fill-opacity=".1"/></g><g transform="translate(8, 170)"><path d="M100.374 29.141c1.88-2.864 4.479-5.43 7.626-7.57v15.306c0 5.823 3.978 10.976 10.078 14.118l-.078.062.909 2.865c3.878 1.994 8.341 3.13 13.091 3.13s9.213-1.136 13.091-3.13l.909-2.865-.078-.062C152.022 47.853 156 42.7 156 36.877V22.279c2.684 1.979 4.923 4.28 6.597 6.819C201.159 30.465 232 62.157 232 101.052V110H32v-8.948c0-38.549 30.294-70.022 68.374-71.91z" fill="#262E33"/><path d="M108 21.572c-6.767 4.602-11 11.168-11 18.456 0 7.398 4.362 14.052 11.308 18.664l6.113-4.816 4.579.332-1-3.151.078-.062C111.978 47.853 108 42.7 108 36.877V21.57zm48 15.305c0 5.823-3.978 10.976-10.078 14.118l.078.062-1 3.15 4.579-.33 5.65 4.45C161.863 53.733 166 47.234 166 40.027c0-6.921-3.818-13.192-10-17.748v14.598z" fill="#fff" fill-opacity=".75"/></g><g transform="translate(86, 134)"><path fill-rule="evenodd" clip-rule="evenodd" d="M35.118 15.128C36.176 24.62 44.226 32 54 32c9.804 0 17.874-7.426 18.892-16.96.082-.767-.775-2.04-1.85-2.04H37.088c-1.08 0-2.075 1.178-1.97 2.128z" fill="#000" fill-opacity=".7"/><path d="M70 13H39a5 5 0 005 5h21a5 5 0 005-5z" fill="#fff"/><path d="M66.694 27.138A10.964 10.964 0 0059 24c-1.8 0-3.5.433-5 1.2-1.5-.767-3.2-1.2-5-1.2-2.995 0-5.71 1.197-7.693 3.138A18.93 18.93 0 0054 32c4.88 0 9.329-1.84 12.694-4.862z" fill="#FF4F6D"/></g><g transform="translate(112, 122)"><path fill-rule="evenodd" clip-rule="evenodd" d="M16 8c0 4.418 5.373 8 12 8s12-3.582 12-8" fill="#000" fill-opacity=".16"/></g><g transform="translate(84, 90)"><path d="M36 22a6 6 0 11-12 0 6 6 0 0112 0zm52 0a6 6 0 11-12 0 6 6 0 0112 0z" fill="#000" fill-opacity=".6"/></g><g transform="translate(84, 82)"><path fill-rule="evenodd" clip-rule="evenodd" d="M26.547 6.148c-5.807.269-15.195 4.488-14.953 10.344.008.192.29.276.427.129 2.755-2.96 22.316-5.95 29.205-4.365.63.145 1.11-.477.71-.927-3.422-3.848-10.186-5.426-15.389-5.18zm59.906 0c5.807.269 15.195 4.488 14.953 10.344-.008.192-.29.276-.427.129-2.755-2.96-22.316-5.95-29.205-4.365-.63.145-1.11-.477-.71-.927 3.422-3.848 10.186-5.426 15.389-5.18z" fill="#000" fill-opacity=".6"/></g><g transform="translate(56, 72)"><path fill-rule="evenodd" clip-rule="evenodd" d="M101.428 98.169c-2.513 2.294-5.19 3.325-8.575 2.604-.582-.124-2.957-4.538-8.853-4.538-5.897 0-8.27 4.414-8.853 4.538-3.385.721-6.062-.31-8.576-2.604-4.725-4.313-8.654-10.26-6.293-16.75 1.23-3.382 3.232-7.095 6.873-8.173 3.887-1.15 9.346-.002 13.264-.788 1.27-.254 2.656-.707 3.585-1.458.929.75 2.316 1.204 3.585 1.458 3.918.786 9.376-.362 13.264.788 3.641 1.078 5.642 4.79 6.873 8.173 2.361 6.49-1.568 12.437-6.294 16.75zM140.081 26c-3.41 8.4-2.093 18.858-2.724 27.676-.513 7.167-2.02 17.91-8.384 22.538-3.255 2.368-9.179 6.346-13.431 5.236-2.927-.764-3.24-9.16-7.087-12.303-4.363-3.565-9.812-5.131-15.306-4.89-2.37.105-7.165.08-9.15 1.903-1.983-1.822-6.777-1.798-9.148-1.902-5.494-.242-10.943 1.324-15.306 4.889-3.847 3.143-4.16 11.54-7.087 12.303-4.252 1.11-10.176-2.868-13.431-5.236-6.365-4.628-7.87-15.37-8.384-22.538-.63-8.818.686-19.276-2.724-27.676-1.66 0-.565 16.129-.565 16.129v20.356c.032 15.288 9.581 38.17 30.754 46.908C63.286 111.53 75.015 115 84 115s20.714-3.14 25.892-5.277c21.173-8.737 30.722-31.95 30.754-47.238V42.13S141.74 26 140.081 26z" fill="#2C1B18"/></g><g transform="translate(7, 0)"><path fill-rule="evenodd" clip-rule="evenodd" d="M180.15 39.92c-2.76-2.82-5.964-5.213-9.081-7.613-.687-.53-1.386-1.046-2.058-1.595-.153-.125-1.719-1.246-1.906-1.659-.451-.993-.19-.22-.128-1.404.079-1.498 3.134-5.73.854-6.7-1.003-.427-2.791.709-3.753 1.084a59.558 59.558 0 01-5.731 1.9c.932-1.857 2.708-5.573-.631-4.579-2.602.775-5.026 2.768-7.64 3.705.865-1.418 4.324-5.811 1.198-6.057-.972-.076-3.803 1.748-4.85 2.138-3.137 1.165-6.341 1.92-9.634 2.513-11.198 2.018-24.293 1.442-34.653 6.54-7.987 3.93-15.874 10.029-20.489 17.794-4.447 7.486-6.11 15.677-7.041 24.254-.683 6.295-.739 12.802-.42 19.119.105 2.07.338 11.611 3.345 8.721 1.498-1.44 1.487-7.253 1.864-9.22.751-3.916 1.474-7.848 2.726-11.638 2.206-6.68 4.809-13.793 10.305-18.393 3.527-2.952 6.004-6.941 9.379-9.919 1.516-1.337.359-1.198 2.797-1.022 1.638.117 3.282.162 4.923.205 3.796.099 7.598.074 11.395.087 7.647.028 15.258.136 22.898-.265 3.395-.177 6.799-.274 10.185-.588 1.891-.175 5.247-1.387 6.804-.461 1.425.847 2.905 3.615 3.928 4.748 2.418 2.679 5.3 4.724 8.126 6.92 5.895 4.58 8.87 10.332 10.661 17.488 1.783 7.13 1.283 13.745 3.49 20.762.389 1.234 1.416 3.36 2.682 1.454.235-.354.175-2.3.175-3.42 0-4.52 1.144-7.91 1.13-12.46-.056-13.832-.504-31.868-10.85-42.439z" fill="#2C1B18"/></g><g transform="translate(69, 85)"><path fill-rule="evenodd" clip-rule="evenodd" d="M38.5 9C17.21 9 9.646 14.096 8.955 14.772 7.324 14.772 6 16.062 6 17.657v2.886c0 1.596 1.324 2.886 2.955 2.886 0 0 5.909 0 5.909 2.886 0 .435.067.644.181.68A62.59 62.59 0 0015 29.5C15 42.336 23.315 50 37.242 50H40c14.721 0 25-8.431 25-20.5 0-1.502-.038-2.999-.17-4.46l1.583-.773a7.917 7.917 0 011.891-.633c1.855-.38 3.952-.227 5.992.276.732.18 1.26.354 1.504.45l1.381.547C77.041 26.41 77 27.953 77 29.5 77 42.336 85.315 50 99.242 50H102c14.721 0 25-8.431 25-20.5 0-1.536-.04-3.067-.178-4.56 1.739-1.511 6.223-1.511 6.223-1.511 1.634 0 2.955-1.29 2.955-2.886v-2.886c0-1.596-1.321-2.885-2.955-2.885C132.354 14.096 124.79 9 103.5 9h-2.97c-1.79 0-3.445.069-4.975.201-9.533.539-14.679 2.15-19.913 4.696a17.01 17.01 0 01-4.563.869c-2.379-.076-4.412-.767-4.81-.908l-.419-.206-.006-.003c-4.935-2.415-8.429-4.125-20.772-4.547A61.165 61.165 0 0041.47 9H38.5zM19 30.502C19 21.84 19 15 38.385 15h3.23C61 15 61 21.841 61 30.502 61 39.627 52.365 46 40 46h-3.03C22.117 46 19 37.572 19 30.502zm62 0C81 21.84 81 15 100.385 15h3.23C123 15 123 21.841 123 30.502 123 39.627 114.365 46 102 46h-3.03C84.12 46 81 37.572 81 30.502z" fill="#000" fill-opacity=".1"/><path fill-rule="evenodd" clip-rule="evenodd" d="M38.5 7C17.21 7 9.646 12.096 8.955 12.772 7.324 12.772 6 14.062 6 15.657v2.886c0 1.596 1.324 2.886 2.955 2.886 0 0 5.909 0 5.909 2.886 0 .435.067.644.181.68A62.59 62.59 0 0015 27.5C15 40.336 23.315 48 37.242 48H40c14.721 0 25-8.431 25-20.5 0-1.502-.038-2.999-.17-4.46l1.583-.773a7.917 7.917 0 011.891-.633c1.855-.38 3.952-.227 5.992.276.732.18 1.26.354 1.504.45l1.381.547C77.041 24.41 77 25.953 77 27.5 77 40.336 85.315 48 99.242 48H102c14.721 0 25-8.431 25-20.5 0-1.536-.04-3.067-.178-4.56 1.739-1.511 6.223-1.511 6.223-1.511 1.634 0 2.955-1.29 2.955-2.886v-2.886c0-1.595-1.321-2.885-2.955-2.885C132.354 12.096 124.79 7 103.5 7h-2.97c-1.79 0-3.445.069-4.975.2-9.533.54-14.679 2.152-19.913 4.697a17.01 17.01 0 01-4.563.869c-2.379-.076-4.412-.767-4.81-.908l-.419-.206-.006-.003c-4.935-2.415-8.429-4.125-20.772-4.547A61.165 61.165 0 0041.47 7H38.5zM19 28.502C19 19.84 19 13 38.385 13h3.23C61 13 61 19.841 61 28.502 61 37.627 52.365 44 40 44h-3.03C22.117 44 19 35.572 19 28.502zm62 0C81 19.84 81 13 100.385 13h3.23C123 13 123 19.841 123 28.502 123 37.627 114.365 44 102 44h-3.03C84.12 44 81 35.572 81 28.502z" fill="#262E33"/></g></g></g></svg>